<svg xmlns="http://www.w3.org/2000/svg" style="display:none">
<defs>
  <symbol id="i-logo" viewBox="0 0 24 24" fill="none" stroke="currentColor" stroke-width="2" stroke-linecap="round" stroke-linejoin="round">
    <path d="M3 18 L12 3 L21 18 Z"/>
    <path d="M3 18 Q12 14 21 18"/>
    <path d="M3 21 Q12 17 21 21"/>
  </symbol>
  <symbol id="i-wrench" viewBox="0 0 24 24" fill="none" stroke="currentColor" stroke-width="2" stroke-linecap="round" stroke-linejoin="round">
    <path d="M14.7 6.3a4 4 0 0 0-5.4 5.4L3 18l3 3 6.3-6.3a4 4 0 0 0 5.4-5.4l-2.1 2.1-1.4-1.4 2.1-2.1-.6-.6z"/>
  </symbol>
  <symbol id="i-alert" viewBox="0 0 24 24" fill="none" stroke="currentColor" stroke-width="2" stroke-linecap="round" stroke-linejoin="round">
    <path d="M10.3 3.7 1.8 18a2 2 0 0 0 1.7 3h17a2 2 0 0 0 1.7-3L13.7 3.7a2 2 0 0 0-3.4 0Z"/>
    <path d="M12 9v4"/><path d="M12 17h.01"/>
  </symbol>
  <symbol id="i-book" viewBox="0 0 24 24" fill="none" stroke="currentColor" stroke-width="2" stroke-linecap="round" stroke-linejoin="round">
    <path d="M4 4.5A2.5 2.5 0 0 1 6.5 2H20v18H6.5A2.5 2.5 0 0 0 4 22.5v-18z"/>
    <path d="M4 4.5v16"/><path d="M8 7h8"/><path d="M8 11h8"/>
  </symbol>
  <symbol id="i-engine" viewBox="0 0 24 24" fill="none" stroke="currentColor" stroke-width="2" stroke-linecap="round" stroke-linejoin="round">
    <rect x="5" y="7" width="14" height="11" rx="1"/>
    <path d="M9 7V4h6v3"/><path d="M5 11H3"/><path d="M19 11h2"/><path d="M5 15H3"/><path d="M19 15h2"/>
    <path d="M12 18v3"/><path d="M10 21h4"/>
  </symbol>
  <symbol id="i-bolt" viewBox="0 0 24 24" fill="none" stroke="currentColor" stroke-width="2" stroke-linecap="round" stroke-linejoin="round">
    <path d="M13 2 3 14h7l-1 8 10-12h-7l1-8z"/>
  </symbol>
  <symbol id="i-thermometer" viewBox="0 0 24 24" fill="none" stroke="currentColor" stroke-width="2" stroke-linecap="round" stroke-linejoin="round">
    <path d="M14 14V4a2 2 0 0 0-4 0v10a4 4 0 1 0 4 0z"/>
  </symbol>
  <symbol id="i-gauge" viewBox="0 0 24 24" fill="none" stroke="currentColor" stroke-width="2" stroke-linecap="round" stroke-linejoin="round">
    <path d="M12 14 8 10"/><path d="M3.3 14A9 9 0 1 1 20.7 14"/>
    <circle cx="12" cy="14" r="1.2" fill="currentColor"/>
  </symbol>
  <symbol id="i-battery" viewBox="0 0 24 24" fill="none" stroke="currentColor" stroke-width="2" stroke-linecap="round" stroke-linejoin="round">
    <rect x="2" y="8" width="18" height="10" rx="1"/>
    <path d="M22 12v2"/><path d="M6 12v2"/><path d="M10 12v2"/><path d="M14 12v2"/>
  </symbol>
  <symbol id="i-steering" viewBox="0 0 24 24" fill="none" stroke="currentColor" stroke-width="2" stroke-linecap="round" stroke-linejoin="round">
    <circle cx="12" cy="12" r="9"/><circle cx="12" cy="12" r="2"/>
    <path d="M12 3v7"/><path d="M5.6 15.5 10.5 13"/><path d="M18.4 15.5 13.5 13"/>
  </symbol>
  <symbol id="i-radio" viewBox="0 0 24 24" fill="none" stroke="currentColor" stroke-width="2" stroke-linecap="round" stroke-linejoin="round">
    <path d="M4 16v-6a8 8 0 0 1 16 0v6"/>
    <rect x="2" y="16" width="20" height="5" rx="1"/>
    <circle cx="8" cy="18.5" r="1"/><path d="M13 18h6"/>
  </symbol>
  <symbol id="i-speaker" viewBox="0 0 24 24" fill="none" stroke="currentColor" stroke-width="2" stroke-linecap="round" stroke-linejoin="round">
    <path d="M11 5 6 9H2v6h4l5 4V5z"/><path d="M15.5 8.5a5 5 0 0 1 0 7"/><path d="M19 5a9 9 0 0 1 0 14"/>
  </symbol>
  <symbol id="i-lightbulb" viewBox="0 0 24 24" fill="none" stroke="currentColor" stroke-width="2" stroke-linecap="round" stroke-linejoin="round">
    <path d="M9 18h6"/><path d="M10 22h4"/>
    <path d="M6 12a6 6 0 1 1 12 0c0 2-1 3-2 4v2H8v-2c-1-1-2-2-2-4z"/>
  </symbol>
  <symbol id="i-horn" viewBox="0 0 24 24" fill="none" stroke="currentColor" stroke-width="2" stroke-linecap="round" stroke-linejoin="round">
    <path d="M3 10v4h4l6 4V6l-6 4H3z"/>
    <path d="M17 8a5 5 0 0 1 0 8"/><path d="M20 5a9 9 0 0 1 0 14"/>
  </symbol>
  <symbol id="i-droplet" viewBox="0 0 24 24" fill="none" stroke="currentColor" stroke-width="2" stroke-linecap="round" stroke-linejoin="round">
    <path d="M12 2s6 7 6 12a6 6 0 0 1-12 0c0-5 6-12 6-12z"/>
  </symbol>
  <symbol id="i-fish" viewBox="0 0 24 24" fill="none" stroke="currentColor" stroke-width="2" stroke-linecap="round" stroke-linejoin="round">
    <path d="M3 12c3-5 8-6 12-6 4 0 7 2 7 6s-3 6-7 6c-4 0-9-1-12-6z"/>
    <path d="M3 12 1 9"/><path d="M3 12 1 15"/>
    <circle cx="17" cy="10" r=".8" fill="currentColor"/>
  </symbol>
  <symbol id="i-spray" viewBox="0 0 24 24" fill="none" stroke="currentColor" stroke-width="2" stroke-linecap="round" stroke-linejoin="round">
    <rect x="6" y="10" width="6" height="11" rx="1"/>
    <path d="M12 13h4"/><path d="M16 11h2"/><path d="M16 15h2"/>
    <path d="M20 9l1-1"/><path d="M20 13h2"/><path d="M20 17l1 1"/>
    <path d="M9 10V7h1V4h2v3h1v3"/>
  </symbol>
  <symbol id="i-plug" viewBox="0 0 24 24" fill="none" stroke="currentColor" stroke-width="2" stroke-linecap="round" stroke-linejoin="round">
    <path d="M9 2v4"/><path d="M15 2v4"/>
    <path d="M6 6h12v4a6 6 0 0 1-12 0V6z"/>
    <path d="M12 16v6"/>
  </symbol>
  <symbol id="i-shield" viewBox="0 0 24 24" fill="none" stroke="currentColor" stroke-width="2" stroke-linecap="round" stroke-linejoin="round">
    <path d="M12 2 4 5v6c0 5 3.5 9 8 11 4.5-2 8-6 8-11V5l-8-3z"/>
    <path d="m9 12 2 2 4-4"/>
  </symbol>
  <symbol id="i-chat" viewBox="0 0 24 24" fill="none" stroke="currentColor" stroke-width="2" stroke-linecap="round" stroke-linejoin="round">
    <path d="M21 15a2 2 0 0 1-2 2H7l-4 4V5a2 2 0 0 1 2-2h14a2 2 0 0 1 2 2z"/>
    <circle cx="9" cy="10" r="1" fill="currentColor"/><circle cx="13" cy="10" r="1" fill="currentColor"/><circle cx="17" cy="10" r="1" fill="currentColor"/>
  </symbol>
  <symbol id="i-mic" viewBox="0 0 24 24" fill="none" stroke="currentColor" stroke-width="2" stroke-linecap="round" stroke-linejoin="round">
    <rect x="9" y="2" width="6" height="12" rx="3"/>
    <path d="M5 11a7 7 0 0 0 14 0"/><path d="M12 18v4"/><path d="M8 22h8"/>
  </symbol>
  <symbol id="i-send" viewBox="0 0 24 24" fill="none" stroke="currentColor" stroke-width="2" stroke-linecap="round" stroke-linejoin="round">
    <path d="M22 2 11 13"/><path d="M22 2 15 22l-4-9-9-4 20-7z"/>
  </symbol>
  <symbol id="i-close" viewBox="0 0 24 24" fill="none" stroke="currentColor" stroke-width="2" stroke-linecap="round" stroke-linejoin="round">
    <path d="M18 6 6 18"/><path d="m6 6 12 12"/>
  </symbol>
  <symbol id="i-chevron" viewBox="0 0 24 24" fill="none" stroke="currentColor" stroke-width="2" stroke-linecap="round" stroke-linejoin="round">
    <path d="m9 18 6-6-6-6"/>
  </symbol>
  <symbol id="i-arrow-left" viewBox="0 0 24 24" fill="none" stroke="currentColor" stroke-width="2" stroke-linecap="round" stroke-linejoin="round">
    <path d="M19 12H5"/><path d="m12 19-7-7 7-7"/>
  </symbol>
  <symbol id="i-search" viewBox="0 0 24 24" fill="none" stroke="currentColor" stroke-width="2" stroke-linecap="round" stroke-linejoin="round">
    <circle cx="11" cy="11" r="7"/><path d="m21 21-4.3-4.3"/>
  </symbol>
  <symbol id="i-lock" viewBox="0 0 24 24" fill="none" stroke="currentColor" stroke-width="2" stroke-linecap="round" stroke-linejoin="round">
    <rect x="4" y="11" width="16" height="10" rx="2"/>
    <path d="M8 11V7a4 4 0 0 1 8 0v4"/>
  </symbol>
  <symbol id="i-check" viewBox="0 0 24 24" fill="none" stroke="currentColor" stroke-width="2.5" stroke-linecap="round" stroke-linejoin="round">
    <path d="M20 6 9 17l-5-5"/>
  </symbol>
  <symbol id="i-spark" viewBox="0 0 24 24" fill="none" stroke="currentColor" stroke-width="2" stroke-linecap="round" stroke-linejoin="round">
    <path d="M12 3v4"/><path d="M12 17v4"/><path d="M3 12h4"/><path d="M17 12h4"/>
    <path d="m5.6 5.6 2.8 2.8"/><path d="m15.6 15.6 2.8 2.8"/>
    <path d="m5.6 18.4 2.8-2.8"/><path d="m15.6 8.4 2.8-2.8"/>
  </symbol>
  <symbol id="i-ai" viewBox="0 0 24 24" fill="none" stroke="currentColor" stroke-width="2" stroke-linecap="round" stroke-linejoin="round">
    <path d="M12 2v3"/><path d="M12 19v3"/><path d="M4.2 4.2l2.1 2.1"/><path d="M17.7 17.7l2.1 2.1"/>
    <path d="M2 12h3"/><path d="M19 12h3"/><path d="M4.2 19.8l2.1-2.1"/><path d="M17.7 6.3l2.1-2.1"/>
    <circle cx="12" cy="12" r="4"/>
  </symbol>
  <symbol id="i-home" viewBox="0 0 24 24" fill="none" stroke="currentColor" stroke-width="2" stroke-linecap="round" stroke-linejoin="round">
    <path d="m3 10 9-7 9 7v10a2 2 0 0 1-2 2h-4v-7h-6v7H5a2 2 0 0 1-2-2V10z"/>
  </symbol>
</defs>
</svg>
